<svg width="305" height="325" viewBox="0 0 305 325" fill="none" xmlns="http://www.w3.org/2000/svg">
<path fill-rule="evenodd" clip-rule="evenodd" d="M166.23 324.841C166.23 324.841 15.5188 115.416 304.923 14.1704C293.366 8.6234 125.895 -43.3886 98.2718 94.6114C154.211 41.9114 197.495 39.0764 203.678 37.7474C167.214 54.1014 102.144 84.8474 66.3778 186.147C23.6718 161.933 9.91876 88.0224 12.2878 53.0024C-1.29724 93.2254 -41.4602 241.279 166.23 324.841ZM73.6358 54.0344C87.9548 58.4574 95.4038 78.3194 90.2738 98.3984C85.1438 118.477 69.3738 131.169 55.0578 126.747C40.7418 122.325 33.2908 102.462 38.4208 82.3834C43.5508 62.3044 59.3178 49.6114 73.6358 54.0344Z" fill="white"/>
</svg>
